<svg xmlns="http://www.w3.org/2000/svg" xmlns:xlink="http://www.w3.org/1999/xlink" version="1.1" x="0px" y="0px" viewBox="0 0 100 100" enable-background="new 0 0 100 100" xml:space="preserve"><path d="M53.613,95c-0.325,0-0.651-0.063-0.957-0.19c-0.613-0.254-1.1-0.741-1.354-1.354l-10.62-25.669L25.825,82.645  c-0.714,0.716-1.792,0.928-2.724,0.542c-0.935-0.387-1.543-1.299-1.543-2.31V7.5c0-1.011,0.609-1.923,1.543-2.31  c0.933-0.387,2.01-0.174,2.724,0.542L77.71,57.617c0.715,0.715,0.929,1.79,0.542,2.725c-0.387,0.934-1.299,1.543-2.31,1.543H54.882  l10.63,25.69c0.527,1.276-0.079,2.738-1.354,3.266l-9.588,3.969C54.264,94.937,53.938,95,53.613,95z M41.562,60.872  c0.162,0,0.326,0.016,0.488,0.048c0.819,0.163,1.502,0.725,1.822,1.496l11.096,26.817l4.968-2.056L48.832,60.341  c-0.319-0.771-0.232-1.651,0.231-2.346c0.464-0.693,1.244-1.11,2.079-1.11h18.766l-43.35-43.349v61.305l13.236-13.236  C40.267,61.131,40.905,60.872,41.562,60.872z"></path></svg>